<?xml version="1.0" encoding="UTF-8" standalone="no"?>
<!-- Created with Inkscape (http://www.inkscape.org/) -->

<svg
   width="373.845"
   height="209.19299"
   viewBox="0 0 98.913156 55.348979"
   version="1.1"
   id="svg1634"
   xmlns="http://www.w3.org/2000/svg"
   xmlns:svg="http://www.w3.org/2000/svg"
   xmlns:rdf="http://www.w3.org/1999/02/22-rdf-syntax-ns#"
   xmlns:cc="http://creativecommons.org/ns#"
   xmlns:dc="http://purl.org/dc/elements/1.1/">
  <defs
     id="defs1628" />
  <metadata
     id="metadata1631">
    <rdf:RDF>
      <cc:Work
         rdf:about="">
        <dc:format>image/svg+xml</dc:format>
        <dc:type
           rdf:resource="http://purl.org/dc/dcmitype/StillImage" />
      </cc:Work>
    </rdf:RDF>
  </metadata>
  <g
     id="layer1">
    <g
       id="g939-7-7"
       transform="translate(-293.197,-107.84066)"
       style="fill:currentColor;fill-opacity:1">
      <path
         style="opacity:1;fill:currentColor;fill-opacity:1;stroke:none;stroke-width:22.0713;stroke-miterlimit:4;stroke-dasharray:none;stroke-opacity:1"
         d="m 321.07018,107.84063 -12.42741,12.42745 3.70678,3.70682 8.63035,-8.63039 8.71613,8.71617 3.79714,-3.7971 z m -15.45025,15.24479 -12.42289,12.42296 12.4297,12.42972 3.75194,-3.75194 -8.61904,-8.61908 8.67097,-8.67102 z m 6.67773,24.01967 -3.65489,3.65485 12.42741,12.42972 12.42299,-12.42291 -3.43143,-3.43366 -8.76802,8.7681 z"
         id="path856-5-8" />
      <g
         transform="translate(-3.9814701)"
         id="g931-3-1"
         style="fill:currentColor;fill-opacity:1">
        <path
           style="font-weight:500;font-size:9.87778px;line-height:1.25;font-family:Montserrat;-inkscape-font-specification:'Montserrat Medium';letter-spacing:0px;word-spacing:0px;opacity:0.5;stroke-width:0.543135"
           d="m 372.246,142.61868 h -1.15273 v -1.37459 h 1.15273 z m 6.48229,0 h -0.90675 v -0.5643 q -0.39067,0.33762 -0.81511,0.52572 -0.42443,0.1881 -0.92122,0.1881 -0.96462,0 -1.53375,-0.74276 -0.56431,-0.74277 -0.56431,-2.05948 0,-0.68489 0.19293,-1.22025 0.19774,-0.53537 0.53054,-0.91158 0.32797,-0.36656 0.76206,-0.55948 0.4389,-0.19293 0.90675,-0.19293 0.42443,0 0.7524,0.0916 0.32798,0.0868 0.68971,0.27492 v -2.33439 h 0.90675 z m -0.90675,-1.32636 v -3.09163 q -0.36656,-0.16399 -0.65594,-0.22669 -0.28939,-0.0627 -0.63183,-0.0627 -0.76206,0 -1.1865,0.53055 -0.42443,0.53054 -0.42443,1.50482 0,0.9598 0.32797,1.46141 0.32797,0.49678 1.05145,0.49678 0.38585,0 0.78134,-0.16881 0.3955,-0.17363 0.73794,-0.44373 z m 7.20094,-1.27331 h -3.96944 q 0,0.49679 0.14952,0.86817 0.14952,0.36656 0.40997,0.60289 0.2508,0.23151 0.59324,0.34727 0.34727,0.11575 0.76206,0.11575 0.54983,0 1.10449,-0.21704 0.55949,-0.22186 0.79582,-0.43408 h 0.0482 v 0.98874 q -0.45819,0.19293 -0.93569,0.32315 -0.47749,0.13022 -1.00321,0.13022 -1.34083,0 -2.09324,-0.72347 -0.75241,-0.72829 -0.75241,-2.0643 0,-1.32154 0.71865,-2.09806 0.72347,-0.77653 1.90032,-0.77653 1.09002,0 1.67845,0.63666 0.59324,0.63665 0.59324,1.80867 z m -0.88263,-0.69453 q -0.005,-0.71382 -0.36174,-1.1045 -0.35209,-0.39067 -1.07556,-0.39067 -0.72829,0 -1.16237,0.42926 -0.42926,0.42926 -0.48714,1.06591 z m 6.91637,-2.09324 -2.18005,5.38744 h -0.91158 l -2.16558,-5.38744 h 0.98392 l 1.6688,4.28777 1.65434,-4.28777 z m 5.03536,3.83439 q 0,0.73794 -0.61254,1.21061 -0.60772,0.47267 -1.66398,0.47267 -0.59807,0 -1.09968,-0.13987 -0.49678,-0.1447 -0.8344,-0.31351 v -1.01768 h 0.0482 q 0.42926,0.32315 0.95498,0.51608 0.52572,0.1881 1.00804,0.1881 0.59807,0 0.93569,-0.19293 0.33761,-0.19292 0.33761,-0.60771 0,-0.31833 -0.18327,-0.48231 -0.18328,-0.16399 -0.70418,-0.27975 -0.19293,-0.0434 -0.50643,-0.10128 -0.30868,-0.0579 -0.56431,-0.1254 -0.709,-0.18811 -1.00803,-0.54984 -0.29421,-0.36656 -0.29421,-0.8971 0,-0.3328 0.13504,-0.62701 0.13987,-0.29421 0.41962,-0.52572 0.27009,-0.22669 0.68488,-0.35692 0.41961,-0.13504 0.93569,-0.13504 0.48231,0 0.97427,0.12058 0.49679,0.11575 0.82476,0.28456 v 0.96945 h -0.0482 q -0.34727,-0.25563 -0.84405,-0.42926 -0.49678,-0.17845 -0.97427,-0.17845 -0.49679,0 -0.83923,0.19292 -0.34244,0.1881 -0.34244,0.56431 0,0.33279 0.20739,0.5016 0.20257,0.16881 0.65595,0.27492 0.2508,0.0579 0.55948,0.11576 0.31351,0.0579 0.5209,0.10611 0.63183,0.14469 0.97427,0.49678 0.34245,0.35691 0.34245,0.94533 z"
           id="text866-5-8"
           aria-label=".devs" />
        <path
           style="font-weight:900;font-size:19.05px;line-height:1.25;font-family:Montserrat;-inkscape-font-specification:'Montserrat Heavy';letter-spacing:0px;word-spacing:0px;stroke-width:0.543135"
           d="m 329.8596,142.39442 q -0.5395,0.13953 -1.14412,0.21394 -0.60461,0.0837 -1.47898,0.0837 -1.95336,0 -2.91145,-0.79065 -0.94877,-0.79065 -0.94877,-2.70681 v -4.88342 h -1.37666 v -2.26963 h 1.37666 v -2.98587 h 3.34863 v 2.98587 h 3.13469 v 2.26963 h -3.13469 v 3.7021 q 0,0.5488 0.009,0.95808 0.009,0.40928 0.14883,0.73484 0.13022,0.32556 0.45578,0.52089 0.33487,0.18604 0.96739,0.18604 0.26045,0 0.67903,-0.11162 0.42788,-0.11162 0.59531,-0.20464 h 0.27905 z m 8.32507,-2.63239 v -2.17661 q -0.67903,0.0558 -1.46967,0.15813 -0.79065,0.093 -1.19993,0.22324 -0.5023,0.15813 -0.77205,0.46509 -0.26045,0.29765 -0.26045,0.79065 0,0.32556 0.0558,0.5302 0.0558,0.20463 0.27906,0.39067 0.21394,0.18603 0.51159,0.27905 0.29766,0.0837 0.93018,0.0837 0.50229,0 1.01389,-0.20464 0.5209,-0.20464 0.91157,-0.5395 z m 0,1.6185 q -0.26975,0.20464 -0.66972,0.493 -0.39998,0.28835 -0.75345,0.45578 -0.49299,0.22324 -1.02319,0.32556 -0.5302,0.11162 -1.16272,0.11162 -1.48828,0 -2.49287,-0.92087 -1.00459,-0.92087 -1.00459,-2.35334 0,-1.14412 0.5116,-1.86966 0.51159,-0.72553 1.45107,-1.14411 0.93018,-0.41858 2.30684,-0.59532 1.37666,-0.17673 2.85564,-0.26044 v -0.0558 q 0,-0.86506 -0.70694,-1.19062 -0.70693,-0.33486 -2.08359,-0.33486 -0.82786,0 -1.76733,0.29765 -0.93948,0.28836 -1.34876,0.44649 h -0.30696 v -2.52078 q 0.5302,-0.13953 1.72083,-0.32556 1.19992,-0.19534 2.39985,-0.19534 2.85564,0 4.12068,0.88367 1.27434,0.87436 1.27434,2.75332 v 7.10654 h -3.32073 z m 17.48731,1.10691 h -3.89744 l -2.93005,-4.54856 -0.91158,1.10691 v 3.44165 h -3.34863 v -14.47353 h 3.34863 v 8.64133 l 3.60909,-4.61367 h 3.86023 l -3.75791,4.50205 z m 11.98066,-4.60437 h -7.66465 q 0.0744,1.22783 0.93018,1.87896 0.86506,0.65112 2.53938,0.65112 1.0604,0 2.05569,-0.38137 0.99529,-0.38137 1.572,-0.81856 h 0.37207 v 2.68821 q -1.13482,0.45579 -2.13941,0.66043 -1.00459,0.20463 -2.22312,0.20463 -3.14399,0 -4.81831,-1.41386 -1.67432,-1.41387 -1.67432,-4.02766 0,-2.58589 1.5813,-4.09278 1.5906,-1.51618 4.35323,-1.51618 2.54868,0 3.83232,1.29294 1.28364,1.28364 1.28364,3.7021 z m -3.33003,-1.96267 q -0.0279,-1.0511 -0.5209,-1.5813 -0.49299,-0.5302 -1.53479,-0.5302 -0.96738,0 -1.5906,0.5023 -0.62321,0.50229 -0.69763,1.6092 z"
           id="text894-2-7"
           aria-label="take" />
      </g>
    </g>
  </g>
</svg>
